# xmcd
#
# Track frame offsets:
#	150
#	13695
#	35582
#	47480
#	70862
#	92470
#	113585
#	137982
#	161807
#	182257
#
# Disc length: 2671 seconds
#
# Revision: 1
# Processed by: cddbd v1.4PL0 Copyright (c) Steve Scherf et al.
# Submitted via: audiograbber 1.80
#
DISCID=790a6d0a
DTITLE=Fusebusters - On the double!
DYEAR=1900
DGENRE=
TTITLE0=On The Double
TTITLE1=Don't Ask For Much
TTITLE2=Bar-B-Que
TTITLE3=Szeren
TTITLE4=Nothing Like You
TTITLE5=Jumpin' Blues
TTITLE6=Shufflin' With Some Barbeque
TTITLE7=I Wish
TTITLE8=I Wonder
TTITLE9=Thunderbird
EXTD=
EXTT0=
EXTT1=
EXTT2=
EXTT3=
EXTT4=
EXTT5=
EXTT6=
EXTT7=
EXTT8=
EXTT9=
PLAYORDER=
